<svg xmlns="http://www.w3.org/2000/svg" viewBox="557.984 72.449 137.262 159.887" width="549" height="640">
  <defs>
    <linearGradient id="blendn" x1="557.984" y1="72.449" x2="695.246" y2="232.336" gradientUnits="userSpaceOnUse">
      <stop offset="0" stop-color="#F05423"/>
      <stop offset="0.5" stop-color="#BE5C71"/>
      <stop offset="1" stop-color="#925DA9"/>
    </linearGradient>
  </defs>
  <path fill-rule="nonzero" fill="url(#blendn)" d="M 564.054688 75.546875 C 561.519531 77.425781 559.871094 80.339844 559.171875 84.195312 C 557.984375 90.878906 560.332031 97.777344 565.453125 102.652344 L 590.414062 126.382812 C 576.199219 126.292969 563.296875 126.164062 563.027344 126.15625 L 559.574219 126.136719 L 559.574219 207.714844 L 584.03125 207.714844 L 584.03125 232.335938 L 654.027344 232.335938 C 657.492188 232.335938 660.789062 230.835938 663.054688 228.230469 L 690.941406 196.320312 C 695.246094 191.375 694.996094 183.875 690.363281 179.238281 L 664.632812 153.5 C 666.761719 150.566406 668.589844 146.351562 668.886719 140.378906 L 668.898438 140.160156 L 668.886719 139.929688 C 668.808594 139.078125 667.898438 131.328125 656.863281 120.492188 L 615.035156 82.078125 L 614.746094 81.847656 C 614.324219 81.539062 604.308594 74.289062 584.042969 73.609375 C 582.765625 73.269531 579.253906 72.449219 575.214844 72.449219 C 571.496094 72.449219 567.332031 73.144531 564.054688 75.546875 M 600.382812 126.445312 L 570.167969 97.699219 C 569.890625 97.441406 569.628906 97.167969 569.378906 96.890625 C 567.078125 94.347656 564.964844 91.9375 564.964844 88.429688 C 564.964844 86.171875 565.695312 84.085938 566.921875 82.386719 C 567.210938 81.898438 567.550781 81.5 567.941406 81.191406 C 567.953125 81.167969 567.960938 81.160156 567.980469 81.148438 C 569.847656 79.292969 572.425781 78.132812 575.273438 78.132812 C 577.902344 78.132812 580.296875 79.117188 582.113281 80.734375 C 582.863281 81.402344 583.625 82.054688 584.429688 82.65625 C 584.925781 83.023438 585.40625 83.425781 585.859375 83.847656 L 623.074219 118.363281 C 625.042969 120.183594 626.398438 122.378906 627.03125 124.714844 C 627.238281 125.535156 627.289062 126.054688 627.277344 126.34375 C 625.652344 126.445312 620.777344 126.484375 614.394531 126.484375 C 610.210938 126.484375 605.375 126.464844 600.382812 126.445312 M 627.519531 133.167969 C 630.445312 133.015625 632.035156 131.648438 632.851562 130.539062 C 634.199219 128.664062 634.46875 126.125 633.621094 122.949219 C 632.664062 119.371094 630.625 116.058594 627.71875 113.359375 L 593.171875 81.320312 C 603.976562 83.066406 609.730469 86.691406 610.578125 87.261719 L 652.128906 125.40625 C 655.394531 128.621094 657.59375 131.46875 659.082031 133.796875 C 661.886719 138.210938 662.195312 143.8125 659.78125 148.449219 C 659.769531 148.46875 659.75 148.488281 659.738281 148.507812 C 659.199219 149.546875 658.410156 150.507812 657.691406 151.253906 C 656.472656 152.53125 654.925781 153.472656 653.199219 153.878906 L 653.167969 153.878906 C 653.117188 153.902344 653.078125 153.921875 653.027344 153.921875 L 566.402344 154.0625 L 566.402344 133.027344 C 575.132812 133.109375 598.179688 133.308594 613.554688 133.308594 C 620.320312 133.308594 625.597656 133.269531 627.519531 133.167969 M 590.851562 207.714844 L 625.871094 207.714844 C 628.917969 207.714844 631.824219 206.578125 634.050781 204.488281 L 650.121094 189.488281 C 652.726562 187.050781 654.1875 183.605469 654.097656 180.027344 C 654.007812 176.464844 652.386719 173.085938 649.660156 170.78125 L 638.367188 161.222656 L 649.941406 161.121094 C 651.230469 161.113281 652.507812 160.980469 653.738281 160.753906 L 653.746094 160.753906 C 653.886719 160.734375 654.007812 160.703125 654.136719 160.671875 C 654.285156 160.644531 654.425781 160.613281 654.574219 160.574219 C 654.675781 160.550781 654.765625 160.53125 654.867188 160.492188 C 656.3125 160.152344 657.691406 159.644531 658.992188 158.996094 C 659.320312 158.824219 659.648438 158.65625 659.9375 158.476562 L 685.527344 184.0625 C 687.644531 186.171875 687.753906 189.589844 685.789062 191.824219 L 657.921875 223.734375 C 656.941406 224.863281 655.523438 225.515625 654.027344 225.515625 L 590.851562 225.515625 Z M 590.851562 160.84375 L 627.277344 160.792969 L 645.257812 175.992188 C 646.503906 177.050781 647.234375 178.550781 647.273438 180.199219 C 647.316406 181.847656 646.664062 183.375 645.46875 184.503906 L 629.394531 199.507812 C 628.429688 200.402344 627.179688 200.882812 625.871094 200.882812 L 590.851562 200.882812 Z M 566.402344 160.882812 L 584.03125 160.882812 L 584.03125 200.882812 L 566.402344 200.882812 Z M 566.402344 160.882812 "/>
</svg>
