<svg preserveAspectRatio="none" width="100%" height="100%" overflow="visible" style="display: block;" viewBox="0 0 60 60" fill="none" xmlns="http://www.w3.org/2000/svg">
<g id="Group 38">
<path id="Ellipse 307" d="M51.8904 10.9787C54.3883 13.8534 56.2956 17.1919 57.5032 20.8037C58.7109 24.4155 59.1954 28.2298 58.9289 32.0288C58.6625 35.8278 57.6504 39.5371 55.9505 42.945C54.2505 46.3529 51.896 49.3925 49.0213 51.8904C46.1466 54.3883 42.808 56.2956 39.1963 57.5032C35.5845 58.7109 31.7702 59.1954 27.9712 58.9289C24.1722 58.6625 20.4629 57.6504 17.055 55.9505C13.6471 54.2505 10.6075 51.896 8.10957 49.0213C5.61166 46.1466 3.70442 42.808 2.49675 39.1963C1.28908 35.5845 0.804627 31.7702 1.07105 27.9712C1.33748 24.1722 2.34956 20.4629 4.04953 17.055C5.74949 13.6471 8.10403 10.6075 10.9787 8.10957C13.8534 5.61166 17.192 3.70442 20.8037 2.49675C24.4155 1.28908 28.2298 0.804627 32.0288 1.07105C35.8278 1.33748 39.5371 2.34957 42.945 4.04953C46.3529 5.74949 49.3925 8.10403 51.8904 10.9787L51.8904 10.9787Z" stroke="var(--stroke-0, #4B9289)" stroke-width="1.2" stroke-linecap="round" stroke-linejoin="round"/>
<path id="Ellipse 308" d="M49.0128 51.8978C43.7411 56.475 36.995 58.9968 30.0134 59C23.0319 59.0032 16.2835 56.4877 11.0075 51.9154" stroke="var(--stroke-0, #4B9289)" stroke-width="1.2" stroke-linecap="round" stroke-linejoin="round"/>
<path id="Ellipse 309" d="M8.14106 49.0575C3.51856 43.7554 0.980697 36.9541 1.00011 29.92C1.01952 22.8859 3.59489 16.0986 8.24659 10.8222" stroke="var(--stroke-0, #4B9289)" stroke-width="1.2" stroke-linecap="round" stroke-linejoin="round"/>
</g>
</svg>
